{
  "accessors": [
    {
      "bufferView": 2,
      "componentType": 5126,
      "count": 29511,
      "max": [
        1.2038700580596924,
        3.857379913330078,
        1.339210033416748
      ],
      "min": [
        -0.9162150025367737,
        1.8709800243377686,
        0.13754799962043762
      ],
      "type": "VEC3"
    },
    {
      "bufferView": 2,
      "byteOffset": 354132,
      "componentType": 5126,
      "count": 29511,
      "max": [
        0.9995822310447693,
        0.9998998045921326,
        0.9999991655349731
      ],
      "min": [
        -0.9999901652336121,
        -0.9999755620956421,
        -0.9995142817497253
      ],
      "type": "VEC3"
    },
    {
      "bufferView": 1,
      "componentType": 5126,
      "count": 29511,
      "max": [
        0.9992600083351135,
        0.9992960095405579
      ],
      "min": [
        0.0006230000290088356,
        0.0009009999921545386
      ],
      "type": "VEC2"
    },
    {
      "bufferView": 0,
      "componentType": 5125,
      "count": 94062,
      "type": "SCALAR"
    },
    {
      "bufferView": 2,
      "byteOffset": 708264,
      "componentType": 5126,
      "count": 22253,
      "max": [
        1.199970006942749,
        3.81469988822937,
        1.3260899782180786
      ],
      "min": [
        -0.94200199842453,
        1.858549952507019,
        0.13754799962043762
      ],
      "type": "VEC3"
    },
    {
      "bufferView": 2,
      "byteOffset": 975300,
      "componentType": 5126,
      "count": 22253,
      "max": [
        0.9999455213546753,
        0.9999509453773499,
        0.9999964833259583
      ],
      "min": [
        -0.9999353885650635,
        -0.9999943375587463,
        -0.9994451999664307
      ],
      "type": "VEC3"
    },
    {
      "bufferView": 1,
      "byteOffset": 236088,
      "componentType": 5126,
      "count": 22253,
      "max": [
        1.998473048210144,
        0.9993579983711243
      ],
      "min": [
        1.000627040863037,
        0.0010849999962374568
      ],
      "type": "VEC2"
    },
    {
      "bufferView": 0,
      "byteOffset": 376248,
      "componentType": 5125,
      "count": 86115,
      "type": "SCALAR"
    },
    {
      "bufferView": 2,
      "byteOffset": 1242336,
      "componentType": 5126,
      "count": 32996,
      "max": [
        1.1536099910736084,
        3.86296010017395,
        1.339210033416748
      ],
      "min": [
        -0.9239879846572876,
        1.8505699634552002,
        0.1360979974269867
      ],
      "type": "VEC3"
    },
    {
      "bufferView": 2,
      "byteOffset": 1638288,
      "componentType": 5126,
      "count": 32996,
      "max": [
        0.9999945759773254,
        0.9999155402183533,
        0.999997615814209
      ],
      "min": [
        -0.99993497133255,
        -0.9999353885650635,
        -0.9995642304420471
      ],
      "type": "VEC3"
    },
    {
      "bufferView": 1,
      "byteOffset": 414112,
      "componentType": 5126,
      "count": 32996,
      "max": [
        2.9992969036102295,
        0.9993860125541687
      ],
      "min": [
        2.0006299018859863,
        0.0006140000186860561
      ],
      "type": "VEC2"
    },
    {
      "bufferView": 0,
      "byteOffset": 720708,
      "componentType": 5125,
      "count": 108378,
      "type": "SCALAR"
    },
    {
      "bufferView": 2,
      "byteOffset": 2034240,
      "componentType": 5126,
      "count": 4133,
      "max": [
        1.2038700580596924,
        3.845020055770874,
        1.2362699508666992
      ],
      "min": [
        -0.8277199864387512,
        1.9162499904632568,
        0.14513300359249115
      ],
      "type": "VEC3"
    },
    {
      "bufferView": 2,
      "byteOffset": 2083836,
      "componentType": 5126,
      "count": 4133,
      "max": [
        0.9998186826705933,
        0.999934196472168,
        0.9999930262565613
      ],
      "min": [
        -0.9999755024909973,
        -0.9999749064445496,
        -0.9994027018547058
      ],
      "type": "VEC3"
    },
    {
      "bufferView": 1,
      "byteOffset": 678080,
      "componentType": 5126,
      "count": 4133,
      "max": [
        3.3188960552215576,
        0.9993150234222412
      ],
      "min": [
        3.0006110668182373,
        0.0008609999786131084
      ],
      "type": "VEC2"
    },
    {
      "bufferView": 0,
      "byteOffset": 1154220,
      "componentType": 5125,
      "count": 10398,
      "type": "SCALAR"
    }
  ],
  "asset": {
    "extras": {
      "author": "tylerphotos (https://sketchfab.com/tylerphotos)",
      "license": "CC-BY-4.0 (http://creativecommons.org/licenses/by/4.0/)",
      "source": "https://sketchfab.com/3d-models/gingerbread-house-d0089ae4fedf436989c4658886b5361a",
      "title": "Gingerbread House"
    },
    "generator": "Sketchfab-12.66.0",
    "version": "2.0"
  },
  "bufferViews": [
    {
      "buffer": 0,
      "byteLength": 1195812,
      "name": "floatBufferViews",
      "target": 34963
    },
    {
      "buffer": 0,
      "byteLength": 711144,
      "byteOffset": 1195812,
      "byteStride": 8,
      "name": "floatBufferViews",
      "target": 34962
    },
    {
      "buffer": 0,
      "byteLength": 2133432,
      "byteOffset": 1906956,
      "byteStride": 12,
      "name": "floatBufferViews",
      "target": 34962
    }
  ],
  "buffers": [
    {
      "byteLength": 4040388,
      "uri": "scene.bin"
    }
  ],
  "extensionsUsed": [
    "KHR_materials_unlit"
  ],
  "images": [
    {
      "uri": "textures/TextureAtlas_1001_baseColor.png"
    },
    {
      "uri": "textures/TextureAtlas_1002_baseColor.png"
    },
    {
      "uri": "textures/TextureAtlas_1003_baseColor.png"
    },
    {
      "uri": "textures/TextureAtlas_1004_baseColor.png"
    }
  ],
  "materials": [
    {
      "doubleSided": true,
      "extensions": {
        "KHR_materials_unlit": {}
      },
      "name": "TextureAtlas_1001",
      "pbrMetallicRoughness": {
        "baseColorTexture": {
          "index": 0
        },
        "metallicFactor": 0.0
      }
    },
    {
      "doubleSided": true,
      "extensions": {
        "KHR_materials_unlit": {}
      },
      "name": "TextureAtlas_1002",
      "pbrMetallicRoughness": {
        "baseColorTexture": {
          "index": 1
        },
        "metallicFactor": 0.0
      }
    },
    {
      "doubleSided": true,
      "extensions": {
        "KHR_materials_unlit": {}
      },
      "name": "TextureAtlas_1003",
      "pbrMetallicRoughness": {
        "baseColorTexture": {
          "index": 2
        },
        "metallicFactor": 0.0
      }
    },
    {
      "doubleSided": true,
      "extensions": {
        "KHR_materials_unlit": {}
      },
      "name": "TextureAtlas_1004",
      "pbrMetallicRoughness": {
        "baseColorTexture": {
          "index": 3
        },
        "metallicFactor": 0.0
      }
    }
  ],
  "meshes": [
    {
      "name": "Object_0",
      "primitives": [
        {
          "attributes": {
            "NORMAL": 1,
            "POSITION": 0,
            "TEXCOORD_0": 2
          },
          "indices": 3,
          "material": 0,
          "mode": 4
        }
      ]
    },
    {
      "name": "Object_1",
      "primitives": [
        {
          "attributes": {
            "NORMAL": 5,
            "POSITION": 4,
            "TEXCOORD_0": 6
          },
          "indices": 7,
          "material": 1,
          "mode": 4
        }
      ]
    },
    {
      "name": "Object_2",
      "primitives": [
        {
          "attributes": {
            "NORMAL": 9,
            "POSITION": 8,
            "TEXCOORD_0": 10
          },
          "indices": 11,
          "material": 2,
          "mode": 4
        }
      ]
    },
    {
      "name": "Object_3",
      "primitives": [
        {
          "attributes": {
            "NORMAL": 13,
            "POSITION": 12,
            "TEXCOORD_0": 14
          },
          "indices": 15,
          "material": 3,
          "mode": 4
        }
      ]
    }
  ],
  "nodes": [
    {
      "children": [
        1
      ],
      "matrix": [
        0.9935871362686157,
        -2.5540094767636287e-17,
        0.11306923627853394,
        0.0,
        0.11298937350511551,
        -0.03757929429411866,
        -0.9928852915763855,
        0.0,
        0.004249062389135361,
        0.9992936253547668,
        -0.03733830153942086,
        0.0,
        -0.32507866621017456,
        0.10787622630596161,
        -0.007586942519992566,
        1.0
      ],
      "name": "Sketchfab_model"
    },
    {
      "children": [
        2,
        3,
        4,
        5
      ],
      "name": "texturedMesh.obj.cleaner.materialmerger.gles"
    },
    {
      "mesh": 0,
      "name": "Object_2"
    },
    {
      "mesh": 1,
      "name": "Object_3"
    },
    {
      "mesh": 2,
      "name": "Object_4"
    },
    {
      "mesh": 3,
      "name": "Object_5"
    }
  ],
  "samplers": [
    {
      "magFilter": 9729,
      "minFilter": 9987,
      "wrapS": 10497,
      "wrapT": 10497
    }
  ],
  "scene": 0,
  "scenes": [
    {
      "name": "Sketchfab_Scene",
      "nodes": [
        0
      ]
    }
  ],
  "textures": [
    {
      "sampler": 0,
      "source": 0
    },
    {
      "sampler": 0,
      "source": 1
    },
    {
      "sampler": 0,
      "source": 2
    },
    {
      "sampler": 0,
      "source": 3
    }
  ]
}
