{
  "accessors": [
    {
      "bufferView": 2,
      "componentType": 5126,
      "count": 2036,
      "max": [
        4.086894989013672,
        1.1797975301742554,
        0.17979760468006134
      ],
      "min": [
        -1.153160572052002,
        -1.1574358940124512,
        -0.17979761958122253
      ],
      "type": "VEC3"
    },
    {
      "bufferView": 2,
      "byteOffset": 24432,
      "componentType": 5126,
      "count": 2036,
      "max": [
        1.0,
        1.0,
        1.0
      ],
      "min": [
        -1.0,
        -1.0,
        -1.0
      ],
      "type": "VEC3"
    },
    {
      "bufferView": 1,
      "componentType": 5126,
      "count": 2036,
      "max": [
        1.0000001192092896,
        1.0000001192092896
      ],
      "min": [
        0.0,
        0.0
      ],
      "type": "VEC2"
    },
    {
      "bufferView": 0,
      "componentType": 5125,
      "count": 8784,
      "type": "SCALAR"
    },
    {
      "bufferView": 2,
      "byteOffset": 48864,
      "componentType": 5126,
      "count": 1967,
      "max": [
        4.058477878570557,
        1.1797975301742554,
        0.17979760468006134
      ],
      "min": [
        -1.153160572052002,
        -1.1574358940124512,
        -0.17979761958122253
      ],
      "type": "VEC3"
    },
    {
      "bufferView": 2,
      "byteOffset": 72468,
      "componentType": 5126,
      "count": 1967,
      "max": [
        1.0,
        1.0,
        1.0
      ],
      "min": [
        -1.0,
        -1.0,
        -1.0
      ],
      "type": "VEC3"
    },
    {
      "bufferView": 1,
      "byteOffset": 16288,
      "componentType": 5126,
      "count": 1967,
      "max": [
        1.0000001192092896,
        1.0000001192092896
      ],
      "min": [
        0.0,
        0.0
      ],
      "type": "VEC2"
    },
    {
      "bufferView": 0,
      "byteOffset": 35136,
      "componentType": 5125,
      "count": 8496,
      "type": "SCALAR"
    }
  ],
  "asset": {
    "extras": {
      "author": "vladaoppo (https://sketchfab.com/vladaoppo)",
      "license": "CC-BY-4.0 (http://creativecommons.org/licenses/by/4.0/)",
      "source": "https://sketchfab.com/3d-models/christmas-lollipop-candy-low-poly-game-ready-798812890dfe4c6eba20d3df5080ac86",
      "title": "Christmas lollipop candy low-poly game-ready"
    },
    "generator": "Sketchfab-12.78.0",
    "version": "2.0"
  },
  "bufferViews": [
    {
      "buffer": 0,
      "byteLength": 69120,
      "name": "floatBufferViews",
      "target": 34963
    },
    {
      "buffer": 0,
      "byteLength": 32024,
      "byteOffset": 69120,
      "byteStride": 8,
      "name": "floatBufferViews",
      "target": 34962
    },
    {
      "buffer": 0,
      "byteLength": 96072,
      "byteOffset": 101144,
      "byteStride": 12,
      "name": "floatBufferViews",
      "target": 34962
    }
  ],
  "buffers": [
    {
      "byteLength": 197216,
      "uri": "scene.bin"
    }
  ],
  "materials": [
    {
      "doubleSided": true,
      "name": "White",
      "pbrMetallicRoughness": {
        "baseColorFactor": [
          0.8,
          0.8,
          0.8,
          1.0
        ],
        "metallicFactor": 0.0,
        "roughnessFactor": 0.76
      }
    },
    {
      "doubleSided": true,
      "name": "material",
      "pbrMetallicRoughness": {
        "baseColorFactor": [
          0.8,
          0.0136,
          0.0230369,
          1.0
        ],
        "metallicFactor": 0.0,
        "roughnessFactor": 0.945559004746
      }
    }
  ],
  "meshes": [
    {
      "name": "Circle.001_White_0",
      "primitives": [
        {
          "attributes": {
            "NORMAL": 1,
            "POSITION": 0,
            "TEXCOORD_0": 2
          },
          "indices": 3,
          "material": 0,
          "mode": 4
        }
      ]
    },
    {
      "name": "Circle.001_Red_0",
      "primitives": [
        {
          "attributes": {
            "NORMAL": 5,
            "POSITION": 4,
            "TEXCOORD_0": 6
          },
          "indices": 7,
          "material": 1,
          "mode": 4
        }
      ]
    }
  ],
  "nodes": [
    {
      "children": [
        1
      ],
      "matrix": [
        0.0050188712775707245,
        -0.9999874234199524,
        -3.885752660570568e-16,
        0.0,
        -0.9999874234199524,
        -0.0050188712775707245,
        -7.227593792963495e-16,
        0.0,
        4.996003610813204e-16,
        6.106226635438361e-16,
        -1.0,
        0.0,
        1.470434546470642,
        1.4666694402694702,
        -0.011163646355271013,
        1.0
      ],
      "name": "Sketchfab_model"
    },
    {
      "children": [
        2
      ],
      "matrix": [
        0.009999999776482582,
        0.0,
        0.0,
        0.0,
        0.0,
        0.0,
        0.009999999776482582,
        0.0,
        0.0,
        -0.009999999776482582,
        0.0,
        0.0,
        0.0,
        0.0,
        0.0,
        1.0
      ],
      "name": "Candy.fbx"
    },
    {
      "children": [
        3
      ],
      "name": "RootNode"
    },
    {
      "children": [
        4,
        5
      ],
      "matrix": [
        100.0,
        0.0,
        0.0,
        0.0,
        -0.0,
        -1.629206793918314e-05,
        -99.99999999999868,
        0.0,
        0.0,
        99.99999999999868,
        -1.629206793918314e-05,
        0.0,
        -1.0021267127756361e-13,
        0.0,
        0.0,
        1.0
      ],
      "name": "Circle.001"
    },
    {
      "mesh": 0,
      "name": "Circle.001_White_0"
    },
    {
      "mesh": 1,
      "name": "Circle.001_Red_0"
    }
  ],
  "scene": 0,
  "scenes": [
    {
      "name": "Sketchfab_Scene",
      "nodes": [
        0
      ]
    }
  ]
}
